<svg xmlns="http://www.w3.org/2000/svg" viewBox="0 0 5476.43 1677.88" width="60pt" height="40pt"><defs><style>.a{fill:#fbb564;}.b{fill:#c58741;}.c{fill:#ffe5a2;}.d{fill:#fcc075;}.e{fill:#b27538;}.f{fill:#ed1b24;stroke:#636061;}.f,.g,.h{stroke-miterlimit:10;stroke-width:20px;}.g{fill:#fff;}.g,.h{stroke:#999;}.h{fill:#0065b3;}</style></defs><polygon class="a" points="1210.27 1.14 0 1677.88 713.75 1677.88 2434.55 1677.88 1210.27 1.14"/><polygon class="b" points="1210.27 1.14 0 1677.88 713.75 1677.88 1210.27 1.14"/><path class="c" d="M963.71,399.3a85.55,85.55,0,0,1,20.51,20.8c4.19,6.26,8,12.92,12.74,18.72,11.59,14.31,27,14.72,43.09,15.23,8.2.26,16.26,2.11,23.42,6.85,6.59,4.35,13,10.08,20.5,12.3,20.47,6.07,40.47-12.9,55.28-26.43,15.12-13.81,30.33-29,49.1-36.1,46.94-17.63,93.36,17.29,140.58,12.23,46.74-5,77.89-48.28,114.22-76.68,4.27-3.34,8.61-6.48,13-9.46L1210.27,0,932.66,384.6A87.1,87.1,0,0,1,963.71,399.3Z" transform="translate(0 1.14)"/><path class="d" d="M963.71,399.3a85.55,85.55,0,0,1,20.51,20.8c4.19,6.26,8,12.92,12.74,18.72,11.59,14.31,27,14.72,43.09,15.23,8.2.26,16.26,2.11,23.42,6.85,2.85,1.88,5.66,4,8.54,6L1210.27,0,932.66,384.6A87.1,87.1,0,0,1,963.71,399.3Z" transform="translate(0 1.14)"/><rect class="b" x="1071.47" y="617.33" width="122.94" height="28.44"/><rect class="b" x="1148.8" y="654.29" width="122.94" height="28.44"/><rect class="b" x="1210.27" y="690.31" width="122.94" height="28.44"/><rect class="b" x="1773.51" y="1194.75" width="122.94" height="28.44"/><rect class="b" x="1712.04" y="1228.87" width="122.94" height="28.44"/><rect class="b" x="1644.15" y="1264.89" width="122.94" height="28.44"/><rect class="b" x="945.16" y="1544.96" width="122.94" height="28.44"/><rect class="b" x="877.69" y="1509.65" width="122.94" height="28.44"/><rect class="e" x="195.03" y="1509.65" width="122.94" height="28.44"/><rect class="e" x="256.5" y="1471.74" width="122.94" height="28.44"/><rect class="e" x="327.74" y="1509.65" width="122.94" height="28.44"/><rect class="b" x="1008.44" y="1509.65" width="122.94" height="28.44"/><rect class="b" x="1773.51" y="1264.89" width="122.94" height="28.44"/><rect class="b" x="1708.69" y="1299.96" width="122.94" height="28.44"/><rect class="b" x="1079.52" y="690.31" width="122.94" height="28.44"/><polygon class="f" points="1391.16 800.49 1068.1 1332.76 1714.21 1332.76 1391.16 800.49"/><polygon class="a" points="4252.15 0 3041.88 1676.73 3755.63 1676.73 5476.43 1676.73 4252.15 0"/><polygon class="b" points="4252.15 0 3041.88 1676.73 3755.63 1676.73 4252.15 0"/><path class="c" d="M4005.59,398.15a85.37,85.37,0,0,1,20.5,20.81c4.2,6.25,8,12.92,12.75,18.71,11.59,14.32,27,14.72,43.09,15.24,8.2.26,16.26,2.11,23.42,6.84,6.59,4.36,13,10.09,20.5,12.31,20.47,6.06,40.47-12.91,55.28-26.43,15.12-13.81,30.33-29.05,49.1-36.1,46.94-17.63,93.36,17.29,140.58,12.22,46.74-5,77.89-48.27,114.21-76.67,4.28-3.34,8.62-6.48,13-9.47L4252.15-1.14l-277.61,384.6A87.16,87.16,0,0,1,4005.59,398.15Z" transform="translate(0 1.14)"/><path class="d" d="M4005.59,398.15a85.37,85.37,0,0,1,20.5,20.81c4.2,6.25,8,12.92,12.75,18.71,11.59,14.32,27,14.72,43.09,15.24,8.2.26,16.26,2.11,23.42,6.84,2.84,1.88,5.66,4,8.54,6L4252.15-1.14l-277.61,384.6A87.16,87.16,0,0,1,4005.59,398.15Z" transform="translate(0 1.14)"/><rect class="b" x="4113.35" y="616.18" width="122.94" height="28.44"/><rect class="b" x="4190.68" y="653.15" width="122.94" height="28.44"/><rect class="b" x="4252.15" y="689.16" width="122.94" height="28.44"/><rect class="b" x="4815.39" y="1193.61" width="122.94" height="28.44"/><rect class="b" x="4753.92" y="1227.73" width="122.94" height="28.44"/><rect class="b" x="4686.03" y="1263.75" width="122.94" height="28.44"/><rect class="b" x="3987.04" y="1543.81" width="122.94" height="28.44"/><rect class="b" x="3919.57" y="1508.51" width="122.94" height="28.44"/><rect class="e" x="3236.91" y="1508.51" width="122.94" height="28.44"/><rect class="e" x="3298.38" y="1470.59" width="122.94" height="28.44"/><rect class="e" x="3369.62" y="1508.51" width="122.94" height="28.44"/><rect class="b" x="4050.32" y="1508.51" width="122.94" height="28.44"/><rect class="b" x="4815.39" y="1263.75" width="122.94" height="28.44"/><rect class="b" x="4750.57" y="1298.82" width="122.94" height="28.44"/><rect class="b" x="4121.4" y="689.16" width="122.94" height="28.44"/><polygon class="a" points="2767.13 0 1556.86 1676.73 2270.62 1676.73 3991.41 1676.73 2767.13 0"/><polygon class="b" points="2767.13 0 1556.86 1676.73 2270.62 1676.73 2767.13 0"/><path class="c" d="M2520.57,398.15A85.41,85.41,0,0,1,2541.08,419c4.19,6.25,8,12.92,12.74,18.71,11.59,14.32,27,14.72,43.09,15.24,8.2.26,16.26,2.11,23.42,6.84,6.59,4.36,13,10.09,20.5,12.31,20.47,6.06,40.47-12.91,55.28-26.43,15.12-13.81,30.33-29.05,49.1-36.1,46.94-17.63,93.36,17.29,140.58,12.22,46.74-5,77.89-48.27,114.22-76.67,4.27-3.34,8.61-6.48,13-9.47L2767.13-1.14l-277.61,384.6A87.08,87.08,0,0,1,2520.57,398.15Z" transform="translate(0 1.14)"/><path class="d" d="M2520.57,398.15A85.41,85.41,0,0,1,2541.08,419c4.19,6.25,8,12.92,12.74,18.71,11.59,14.32,27,14.72,43.09,15.24,8.2.26,16.26,2.11,23.42,6.84,2.85,1.88,5.66,4,8.54,6L2767.13-1.14l-277.61,384.6A87.08,87.08,0,0,1,2520.57,398.15Z" transform="translate(0 1.14)"/><rect class="b" x="2628.33" y="616.18" width="122.94" height="28.44"/><rect class="b" x="2705.66" y="653.15" width="122.94" height="28.44"/><rect class="b" x="2767.13" y="689.16" width="122.94" height="28.44"/><rect class="b" x="3330.37" y="1193.61" width="122.94" height="28.44"/><rect class="b" x="3268.9" y="1227.73" width="122.94" height="28.44"/><rect class="b" x="3201.01" y="1263.75" width="122.94" height="28.44"/><rect class="b" x="2502.02" y="1543.81" width="122.94" height="28.44"/><rect class="b" x="2434.55" y="1508.51" width="122.94" height="28.44"/><rect class="e" x="1751.89" y="1508.51" width="122.94" height="28.44"/><rect class="e" x="1813.36" y="1470.59" width="122.94" height="28.44"/><rect class="e" x="1884.6" y="1508.51" width="122.94" height="28.44"/><rect class="b" x="2565.31" y="1508.51" width="122.94" height="28.44"/><rect class="b" x="3330.37" y="1263.75" width="122.94" height="28.44"/><rect class="b" x="3265.55" y="1298.82" width="122.94" height="28.44"/><rect class="b" x="2636.38" y="689.16" width="122.94" height="28.44"/><ellipse class="g" cx="2914.03" cy="1090.24" rx="289.07" ry="290.89"/><polygon class="h" points="4808.97 1089.1 4485.59 1414.52 4162.21 1089.1 4485.59 763.67 4808.97 1089.1"/></svg>